<?xml version="1.0" standalone="no"?>
<!DOCTYPE svg PUBLIC "-//W3C//DTD SVG 1.1//EN" "http://www.w3.org/Graphics/SVG/1.1/DTD/svg11.dtd" >
<svg xmlns="http://www.w3.org/2000/svg" xmlns:xlink="http://www.w3.org/1999/xlink" version="1.1">
<metadata>
Created by FontForge 20170731 at (null) By Aleksey,,,
(c) 2004 dincTYPE. All Rights Reserved. Do Not Redistribute. www.girlswhowearglasses.com
</metadata>
<defs>
<font id="Kong" horiz-adv-x="1578" >
  <font-face 
    font-family="Kong"
    font-weight="400"
    font-stretch="normal"
    units-per-em="1100"
    panose-1="0 0 4 0 0 0 0 0 0 0"
    ascent="880"
    descent="-220"
    x-height="933"
    cap-height="933"
    bbox="-42 -219 1190 1020"
    underline-thickness="20"
    underline-position="-163"
    unicode-range="U+0020-F000"
  />
<missing-glyph horiz-adv-x="550" 
d="M69 0v1000h412v-1000h-412zM138 69h275v862h-275v-862z" />
    <glyph glyph-name=".notdef" horiz-adv-x="550" 
d="M69 0v1000h412v-1000h-412zM138 69h275v862h-275v-862z" />
    <glyph glyph-name=".null" horiz-adv-x="0" 
 />
    <glyph glyph-name="nonmarkingreturn" horiz-adv-x="414" 
 />
    <glyph glyph-name="space" unicode=" " horiz-adv-x="414" 
 />
    <glyph glyph-name="exclam" unicode="!" horiz-adv-x="429" 
d="M65 279v654h281v-654h-281zM225 56h-45q-27 0 -49 15q-26 17 -26 43v64q0 26 26 43q22 15 49 15h45q28 0 51.5 -15.5t23.5 -42.5v-64q0 -26 -23.5 -42t-51.5 -16z" />
    <glyph glyph-name="quotedbl" unicode="&#x22;" horiz-adv-x="608" 
d="M449 659h-45q-27 0 -50 15q-26 16 -26 43v198q0 26 26 42q23 15 50 15h45q29 0 51 -14q25 -17 25 -43v-198q0 -27 -23.5 -42.5t-52.5 -15.5zM178 659h-45q-28 0 -50 15q-26 16 -26 43v198q0 26 26 42q22 15 50 15h45q28 0 50 -15q26 -16 26 -42v-198q0 -27 -26 -43
q-22 -15 -50 -15z" />
    <glyph glyph-name="numbersign" unicode="#" horiz-adv-x="934" 
d="M573 399q0 -34 -45 -34h-196v288h196q45 0 45 -35v-219zM482 419v104q0 15 -20 15h-15q-21 0 -21 -15v-104q0 -14 21 -14h15q20 0 20 14zM838 504l-11 -93q-14 -130 -94 -311l11 -34q-4 -26 -31 -63l-139 56v28q0 7 19 58q11 31 22 63q26 83 31 132l9 82l-2 91l-2 24
q-10 99 -77 159q-36 33 -95 46l-14 2l-46 -2q-48 -3 -94 -47q-61 -59 -71 -149l-3 -30l-2 -52l10 -98q11 -108 91 -305q-37 -18 -73 -36q-43 -20 -74 -24l-7 -1q-13 23 -30 68l10 22q-78 194 -92 316l-8 60l-3 90l7 66q5 20 13 59q11 70 83 145q68 70 139 96v40h290l-14 -40
l78 -50q47 -33 75 -71q78 -105 89 -205l3 -29zM773 607q-15 70 -59 135v-17q0 -11 -11 -20t-21 -9h-23q27 -42 43 -90q1 13 11 22.5t23 8.5l20 -1q3 1 17 -29zM531 895v8h-150v-8h150zM778 444v121q-3 -34 -28 -34h-24l-10 17l3 -26l3 -71l24 11q20 -2 32 -18zM781 404v15
l-5 22l-10 -65zM674 793q-37 40 -78 59v-37h-281v39h-3q-17 0 -65 -46q-43 -40 -63 -67q-31 -44 -46 -103l24 2q12 0 22.5 -10.5t10.5 -21.5v-29q12 84 60 141l-35 -15l-17 36v14q0 2 3 8q10 24 50 33l28 -2l3 -9v-15l-4 -21q57 51 108 56l33 3l72 -3q76 -10 127 -64l-4 15
l1 5q1 14 18 24q10 5 20 9zM721 450l-11 -23l3 -63l5 36zM766 375q-2 -5 -18 -12t-23 -7h-12v5l-54 -226l30 -11q52 106 77 251zM696 68l-39 5l27 -15zM188 441v97h-43l-19 22v-110q16 14 27 14q27 0 35 -23zM195 408v5l-6 24l4 -51zM141 367l-12 81l-5 -17v-27zM250 138
q-40 123 -54 219l-3 26q-6 -24 -28 -23l-14 1q-6 0 -9 3v-3q25 -136 83 -237zM269 69l-13 13l-31 -16h-5l9 -12l35 14z" />
    <glyph glyph-name="dollar" unicode="$" horiz-adv-x="934" 
d="M573 399q0 -34 -45 -34h-196v288h196q45 0 45 -35v-219zM482 419v104q0 15 -20 15h-15q-21 0 -21 -15v-104q0 -14 21 -14h15q20 0 20 14zM838 504l-11 -93q-14 -130 -94 -311l11 -34q-4 -26 -31 -63l-139 56v28q0 7 19 58q11 31 22 63q26 83 31 132l9 82l-2 91l-2 24
q-10 99 -77 159q-36 33 -95 46l-14 2l-46 -2q-48 -3 -94 -47q-61 -59 -71 -149l-3 -30l-2 -52l10 -98q11 -108 91 -305q-37 -18 -73 -36q-43 -20 -74 -24l-7 -1q-13 23 -30 68l10 22q-78 194 -92 316l-8 60l-3 90l7 66q5 20 13 59q11 70 83 145q68 70 139 96v40h290l-14 -40
l78 -50q47 -33 75 -71q78 -105 89 -205l3 -29zM773 607q-15 70 -59 135v-17q0 -11 -11 -20t-21 -9h-23q27 -42 43 -90q1 13 11 22.5t23 8.5l20 -1q3 1 17 -29zM531 895v8h-150v-8h150zM778 444v121q-3 -34 -28 -34h-24l-10 17l3 -26l3 -71l24 11q20 -2 32 -18zM781 404v15
l-5 22l-10 -65zM674 793q-37 40 -78 59v-37h-281v39h-3q-17 0 -65 -46q-43 -40 -63 -67q-31 -44 -46 -103l24 2q12 0 22.5 -10.5t10.5 -21.5v-29q12 84 60 141l-35 -15l-17 36v14q0 2 3 8q10 24 50 33l28 -2l3 -9v-15l-4 -21q57 51 108 56l33 3l72 -3q76 -10 127 -64l-4 15
l1 5q1 14 18 24q10 5 20 9zM721 450l-11 -23l3 -63l5 36zM766 375q-2 -5 -18 -12t-23 -7h-12v5l-54 -226l30 -11q52 106 77 251zM696 68l-39 5l27 -15zM188 441v97h-43l-19 22v-110q16 14 27 14q27 0 35 -23zM195 408v5l-6 24l4 -51zM141 367l-12 81l-5 -17v-27zM250 138
q-40 123 -54 219l-3 26q-6 -24 -28 -23l-14 1q-6 0 -9 3v-3q25 -136 83 -237zM269 69l-13 13l-31 -16h-5l9 -12l35 14z" />
    <glyph glyph-name="percent" unicode="%" horiz-adv-x="934" 
d="M573 399q0 -34 -45 -34h-196v288h196q45 0 45 -35v-219zM482 419v104q0 15 -20 15h-15q-21 0 -21 -15v-104q0 -14 21 -14h15q20 0 20 14zM838 504l-11 -93q-14 -130 -94 -311l11 -34q-4 -26 -31 -63l-139 56v28q0 7 19 58q11 31 22 63q26 83 31 132l9 82l-2 91l-2 24
q-10 99 -77 159q-36 33 -95 46l-14 2l-46 -2q-48 -3 -94 -47q-61 -59 -71 -149l-3 -30l-2 -52l10 -98q11 -108 91 -305q-37 -18 -73 -36q-43 -20 -74 -24l-7 -1q-13 23 -30 68l10 22q-78 194 -92 316l-8 60l-3 90l7 66q5 20 13 59q11 70 83 145q68 70 139 96v40h290l-14 -40
l78 -50q47 -33 75 -71q78 -105 89 -205l3 -29zM773 607q-15 70 -59 135v-17q0 -11 -11 -20t-21 -9h-23q27 -42 43 -90q1 13 11 22.5t23 8.5l20 -1q3 1 17 -29zM531 895v8h-150v-8h150zM778 444v121q-3 -34 -28 -34h-24l-10 17l3 -26l3 -71l24 11q20 -2 32 -18zM781 404v15
l-5 22l-10 -65zM674 793q-37 40 -78 59v-37h-281v39h-3q-17 0 -65 -46q-43 -40 -63 -67q-31 -44 -46 -103l24 2q12 0 22.5 -10.5t10.5 -21.5v-29q12 84 60 141l-35 -15l-17 36v14q0 2 3 8q10 24 50 33l28 -2l3 -9v-15l-4 -21q57 51 108 56l33 3l72 -3q76 -10 127 -64l-4 15
l1 5q1 14 18 24q10 5 20 9zM721 450l-11 -23l3 -63l5 36zM766 375q-2 -5 -18 -12t-23 -7h-12v5l-54 -226l30 -11q52 106 77 251zM696 68l-39 5l27 -15zM188 441v97h-43l-19 22v-110q16 14 27 14q27 0 35 -23zM195 408v5l-6 24l4 -51zM141 367l-12 81l-5 -17v-27zM250 138
q-40 123 -54 219l-3 26q-6 -24 -28 -23l-14 1q-6 0 -9 3v-3q25 -136 83 -237zM269 69l-13 13l-31 -16h-5l9 -12l35 14z" />
    <glyph glyph-name="ampersand" unicode="&#x26;" horiz-adv-x="957" 
d="M803 233h-23v-72q0 -49 -47 -79q-40 -26 -92 -26h-460q-52 0 -92 26q-47 30 -47 79v668q0 49 47 79q40 25 92 25h460q52 0 92 -25q47 -30 47 -79v-334h-280v43q0 21 -22 34q-18 12 -41 12h-45q-23 0 -41 -12q-22 -13 -22 -34v-155h461q29 0 53 -13q30 -15 30 -41v-35
q0 -27 -21 -44t-49 -17zM500 236h-171v-14q0 -21 22 -34q18 -11 41 -11h45q23 0 41 11q22 13 22 34v14z" />
    <glyph glyph-name="quotesingle" unicode="'" horiz-adv-x="344" 
d="M187 659h-44q-28 0 -50 15q-25 16 -25 43v198q0 26 25 42q22 15 50 15h44q27 0 50.5 -15.5t23.5 -41.5v-198q0 -27 -23.5 -42.5t-50.5 -15.5z" />
    <glyph glyph-name="parenleft" unicode="(" horiz-adv-x="934" 
d="M573 399q0 -34 -45 -34h-196v288h196q45 0 45 -35v-219zM482 419v104q0 15 -20 15h-15q-21 0 -21 -15v-104q0 -14 21 -14h15q20 0 20 14zM838 504l-11 -93q-14 -130 -94 -311l11 -34q-4 -26 -31 -63l-139 56v28q0 7 19 58q11 31 22 63q26 83 31 132l9 82l-2 91l-2 24
q-10 99 -77 159q-36 33 -95 46l-14 2l-46 -2q-48 -3 -94 -47q-61 -59 -71 -149l-3 -30l-2 -52l10 -98q11 -108 91 -305q-37 -18 -73 -36q-43 -20 -74 -24l-7 -1q-13 23 -30 68l10 22q-78 194 -92 316l-8 60l-3 90l7 66q5 20 13 59q11 70 83 145q68 70 139 96v40h290l-14 -40
l78 -50q47 -33 75 -71q78 -105 89 -205l3 -29zM773 607q-15 70 -59 135v-17q0 -11 -11 -20t-21 -9h-23q27 -42 43 -90q1 13 11 22.5t23 8.5l20 -1q3 1 17 -29zM531 895v8h-150v-8h150zM778 444v121q-3 -34 -28 -34h-24l-10 17l3 -26l3 -71l24 11q20 -2 32 -18zM781 404v15
l-5 22l-10 -65zM674 793q-37 40 -78 59v-37h-281v39h-3q-17 0 -65 -46q-43 -40 -63 -67q-31 -44 -46 -103l24 2q12 0 22.5 -10.5t10.5 -21.5v-29q12 84 60 141l-35 -15l-17 36v14q0 2 3 8q10 24 50 33l28 -2l3 -9v-15l-4 -21q57 51 108 56l33 3l72 -3q76 -10 127 -64l-4 15
l1 5q1 14 18 24q10 5 20 9zM721 450l-11 -23l3 -63l5 36zM766 375q-2 -5 -18 -12t-23 -7h-12v5l-54 -226l30 -11q52 106 77 251zM696 68l-39 5l27 -15zM188 441v97h-43l-19 22v-110q16 14 27 14q27 0 35 -23zM195 408v5l-6 24l4 -51zM141 367l-12 81l-5 -17v-27zM250 138
q-40 123 -54 219l-3 26q-6 -24 -28 -23l-14 1q-6 0 -9 3v-3q25 -136 83 -237zM269 69l-13 13l-31 -16h-5l9 -12l35 14z" />
    <glyph glyph-name="parenright" unicode=")" horiz-adv-x="934" 
d="M573 399q0 -34 -45 -34h-196v288h196q45 0 45 -35v-219zM482 419v104q0 15 -20 15h-15q-21 0 -21 -15v-104q0 -14 21 -14h15q20 0 20 14zM838 504l-11 -93q-14 -130 -94 -311l11 -34q-4 -26 -31 -63l-139 56v28q0 7 19 58q11 31 22 63q26 83 31 132l9 82l-2 91l-2 24
q-10 99 -77 159q-36 33 -95 46l-14 2l-46 -2q-48 -3 -94 -47q-61 -59 -71 -149l-3 -30l-2 -52l10 -98q11 -108 91 -305q-37 -18 -73 -36q-43 -20 -74 -24l-7 -1q-13 23 -30 68l10 22q-78 194 -92 316l-8 60l-3 90l7 66q5 20 13 59q11 70 83 145q68 70 139 96v40h290l-14 -40
l78 -50q47 -33 75 -71q78 -105 89 -205l3 -29zM773 607q-15 70 -59 135v-17q0 -11 -11 -20t-21 -9h-23q27 -42 43 -90q1 13 11 22.5t23 8.5l20 -1q3 1 17 -29zM531 895v8h-150v-8h150zM778 444v121q-3 -34 -28 -34h-24l-10 17l3 -26l3 -71l24 11q20 -2 32 -18zM781 404v15
l-5 22l-10 -65zM674 793q-37 40 -78 59v-37h-281v39h-3q-17 0 -65 -46q-43 -40 -63 -67q-31 -44 -46 -103l24 2q12 0 22.5 -10.5t10.5 -21.5v-29q12 84 60 141l-35 -15l-17 36v14q0 2 3 8q10 24 50 33l28 -2l3 -9v-15l-4 -21q57 51 108 56l33 3l72 -3q76 -10 127 -64l-4 15
l1 5q1 14 18 24q10 5 20 9zM721 450l-11 -23l3 -63l5 36zM766 375q-2 -5 -18 -12t-23 -7h-12v5l-54 -226l30 -11q52 106 77 251zM696 68l-39 5l27 -15zM188 441v97h-43l-19 22v-110q16 14 27 14q27 0 35 -23zM195 408v5l-6 24l4 -51zM141 367l-12 81l-5 -17v-27zM250 138
q-40 123 -54 219l-3 26q-6 -24 -28 -23l-14 1q-6 0 -9 3v-3q25 -136 83 -237zM269 69l-13 13l-31 -16h-5l9 -12l35 14z" />
    <glyph glyph-name="asterisk" unicode="*" horiz-adv-x="522" 
d="M418 743q-34 -26 -39 -29q-22 -13 -47 -13q-30 0 -73 30q-47 -36 -79 -36q-26 0 -50 15l-34 22q-24 16 -24 43q0 24 41 57l-27 19q-25 18 -25 42q0 23 20 39q34 27 39 30q20 12 47 12q30 0 82 -35q28 22 35 27q19 10 45 10t46 -11q4 -2 38 -26q26 -18 26 -43
q0 -21 -22 -39l-24 -19q46 -30 46 -55q0 -24 -21 -40z" />
    <glyph glyph-name="plus" unicode="+" horiz-adv-x="562" 
d="M403 258h-35v-29q0 -26 -24 -41.5t-51 -15.5h-45q-28 0 -50 14q-26 17 -26 43v29h-37q-28 0 -50 15q-26 16 -26 42v34q0 26 26 43q22 14 50 14h37v21q0 26 26 43q22 14 50 14h45q27 0 50 -14q25 -17 25 -43v-21h35q27 0 50 -14q25 -17 25 -43v-34q0 -26 -24 -41.5
t-51 -15.5z" />
    <glyph glyph-name="comma" unicode="," horiz-adv-x="347" 
d="M190 -113h-45q-28 0 -49 14q-24 16 -25 43l-3 174q0 26 25 42q22 15 50 15h44q27 0 50.5 -15.5t23.5 -41.5l3 -174q0 -26 -23.5 -41.5t-50.5 -15.5z" />
    <glyph glyph-name="hyphen" unicode="-" horiz-adv-x="562" 
d="M403 261h-268q-28 0 -50 13q-26 17 -26 42v33q0 26 26 42q22 14 50 14h268q27 0 51 -15t24 -41v-33q0 -25 -25 -42q-23 -13 -50 -13z" />
    <glyph glyph-name="hyphen" unicode="&#x2010;" horiz-adv-x="562" 
d="M403 261h-268q-28 0 -50 13q-26 17 -26 42v33q0 26 26 42q22 14 50 14h268q27 0 51 -15t24 -41v-33q0 -25 -25 -42q-23 -13 -50 -13z" />
    <glyph glyph-name="period" unicode="." horiz-adv-x="344" 
d="M187 8h-44q-28 0 -49 15q-26 16 -26 42v61q0 26 26 42q21 15 49 15h44q27 0 50.5 -15.5t23.5 -41.5v-61q0 -26 -23.5 -41.5t-50.5 -15.5z" />
    <glyph glyph-name="slash" unicode="/" horiz-adv-x="429" 
d="M65 -40v1060h281v-1060h-281z" />
    <glyph glyph-name="zero" unicode="0" horiz-adv-x="866" 
d="M644 56h-459q-52 0 -92 26q-47 30 -47 79v668q0 49 47 79q40 25 92 25h459q52 0 92 -25q47 -30 47 -79v-668q0 -49 -47 -79q-40 -26 -92 -26zM504 538q0 21 -20.5 33.5t-42.5 12.5h-46q-22 0 -41 -12q-22 -13 -22 -34v-319q0 -21 22 -34q19 -11 41 -11h46q22 0 42.5 12
t20.5 33v319z" />
    <glyph glyph-name="one" unicode="1" horiz-adv-x="429" 
d="M65 56v877h281v-877h-281z" />
    <glyph glyph-name="two" unicode="2" horiz-adv-x="866" 
d="M46 56v206q0 77 30.5 105.5t112.5 28.5h245q22 0 42.5 12t20.5 33v97q0 21 -20.5 33.5t-42.5 12.5h-46q-22 0 -41 -12q-22 -13 -22 -34v-62h-279v353q0 49 47 79q40 25 92 25h459q52 0 92 -25q47 -30 47 -79v-460q0 -55 -18 -71q-21 -19 -96 -19h-282q-23 0 -41 -12
q-21 -13 -21 -35v-9q0 -21 22 -34q19 -11 41 -11l395 -1v-121h-737z" />
    <glyph glyph-name="three" unicode="3" horiz-adv-x="867" 
d="M645 56h-597v121h387q22 0 42.5 12t20.5 33v12q0 21 -20.5 33t-42.5 12h-389v117h389q22 0 42.5 12t20.5 33v97q0 21 -20.5 33.5t-42.5 12.5h-387v349h597q52 0 92 -25q47 -30 47 -79v-668q0 -49 -47 -79q-40 -26 -92 -26z" />
    <glyph glyph-name="four" unicode="4" horiz-adv-x="866" 
d="M504 56v66q0 21 -22 33q-18 9 -41 9h-256q-52 0 -92 26q-47 30 -47 79v664h286v-603q0 -21 22 -34q19 -11 41 -11h46q51 0 61 35l2 613h279v-877h-279z" />
    <glyph glyph-name="five" unicode="5" horiz-adv-x="866" 
d="M644 56h-459q-52 0 -92 26q-47 30 -47 79v16l395 1q22 0 42.5 12t20.5 33v9q0 22 -19.5 34.5t-42.5 12.5h-283q-74 0 -95 19q-18 16 -18 71v460q0 49 47 79q40 25 92 25h459q52 0 92 -25q47 -30 47 -79v-245h-388q-22 0 -41 -12q-22 -13 -22 -34v-97q0 -21 22 -34
q19 -11 41 -11h245q82 0 112.5 -28.5t30.5 -105.5v-101q0 -105 -139 -105z" />
    <glyph glyph-name="six" unicode="6" horiz-adv-x="866" 
d="M644 56h-459q-52 0 -92 26q-47 30 -47 79v668q0 104 139 104h459q52 0 92 -25q47 -30 47 -79v-16l-395 -1q-22 0 -41 -11q-22 -13 -22 -35v-8q0 -22 21 -36q18 -12 41 -12h282q76 0 95 -17t19 -72v-460q0 -49 -47 -79q-40 -26 -92 -26zM497 549q0 21 -20.5 33t-42.5 12
h-109v-142q0 -21 22 -35q19 -11 41 -11h46q22 0 42.5 12.5t20.5 33.5v97z" />
    <glyph glyph-name="seven" unicode="7" horiz-adv-x="873" 
d="M788 608q0 -42 -49 -85q-28 -24 -85 -71q-89 -69 -177 -139q-121 -96 -159 -143q3 -15 -1 -114h-259q-4 74 6.5 97t154.5 147q14 13 49 45q17 15 155 128q95 78 127 112q-3 0 -8 -1h-496v349h744v-107q-2 -188 -2 -218z" />
    <glyph glyph-name="eight" unicode="8" horiz-adv-x="871" 
d="M649 56l-378 -1v1q-103 0 -141 10q-84 22 -84 95v668q0 48 45 78q41 26 94 26h464q53 0 94 -26q45 -30 45 -78v-668q0 -48 -46 -78q-40 -27 -93 -27zM509 538q0 24 -21.5 38t-48.5 14h-41v-6h-13v6q-24 -3 -42 -17t-18 -35v-97q0 -21 18.5 -35t42.5 -17v6h12v-6h43
q26 0 47 14.5t21 37.5v97zM502 234q0 20 -19.5 32.5t-43.5 12.5h-44q-24 0 -42 -12q-21 -13 -21 -33v-12q0 -20 21 -33q18 -12 42 -12h44q24 0 43.5 12.5t19.5 32.5v12z" />
    <glyph glyph-name="nine" unicode="9" horiz-adv-x="866" 
d="M644 56h-459q-52 0 -92 26q-47 30 -47 79v16l395 1q22 0 42.5 12t20.5 33v9q0 22 -19.5 34.5t-42.5 12.5h-283q-74 0 -95 19q-18 16 -18 71v460q0 49 47 79q40 25 92 25h459q52 0 92 -25q47 -30 47 -79v-668q0 -105 -139 -105zM441 584h-46q-22 0 -41 -12
q-22 -13 -22 -34v-97q0 -21 22 -34q19 -11 41 -11h109v142q0 21 -20.5 33.5t-42.5 12.5z" />
    <glyph glyph-name="colon" unicode=":" horiz-adv-x="344" 
d="M187 356h-44q-28 0 -50 15q-25 17 -25 43v63q0 27 25 43q22 15 50 15h44q28 0 49 -15q25 -16 25 -43v-63q0 -26 -23.5 -42t-50.5 -16zM187 109h-44q-28 0 -50 15q-25 17 -25 43v63q0 26 25 43q22 14 50 14h44q28 0 49 -14q25 -17 25 -43v-63q0 -26 -23.5 -42t-50.5 -16z
" />
    <glyph glyph-name="semicolon" unicode=";" horiz-adv-x="347" 
d="M187 348h-44q-28 0 -50 15q-25 17 -25 43v63q0 27 25 43q21 15 50 15h44q28 0 49 -15q25 -16 25 -43v-63q0 -26 -23.5 -42t-50.5 -16zM192 -14h-44q-28 0 -51 15q-26 16 -26 43v176q0 26 25 43q22 15 49 15h45q27 0 50.5 -16t23.5 -42v-176q0 -26 -24 -43
q-20 -15 -48 -15z" />
    <glyph glyph-name="less" unicode="&#x3c;" horiz-adv-x="934" 
d="M573 399q0 -34 -45 -34h-196v288h196q45 0 45 -35v-219zM482 419v104q0 15 -20 15h-15q-21 0 -21 -15v-104q0 -14 21 -14h15q20 0 20 14zM838 504l-11 -93q-14 -130 -94 -311l11 -34q-4 -26 -31 -63l-139 56v28q0 7 19 58q11 31 22 63q26 83 31 132l9 82l-2 91l-2 24
q-10 99 -77 159q-36 33 -95 46l-14 2l-46 -2q-48 -3 -94 -47q-61 -59 -71 -149l-3 -30l-2 -52l10 -98q11 -108 91 -305q-37 -18 -73 -36q-43 -20 -74 -24l-7 -1q-13 23 -30 68l10 22q-78 194 -92 316l-8 60l-3 90l7 66q5 20 13 59q11 70 83 145q68 70 139 96v40h290l-14 -40
l78 -50q47 -33 75 -71q78 -105 89 -205l3 -29zM773 607q-15 70 -59 135v-17q0 -11 -11 -20t-21 -9h-23q27 -42 43 -90q1 13 11 22.5t23 8.5l20 -1q3 1 17 -29zM531 895v8h-150v-8h150zM778 444v121q-3 -34 -28 -34h-24l-10 17l3 -26l3 -71l24 11q20 -2 32 -18zM781 404v15
l-5 22l-10 -65zM674 793q-37 40 -78 59v-37h-281v39h-3q-17 0 -65 -46q-43 -40 -63 -67q-31 -44 -46 -103l24 2q12 0 22.5 -10.5t10.5 -21.5v-29q12 84 60 141l-35 -15l-17 36v14q0 2 3 8q10 24 50 33l28 -2l3 -9v-15l-4 -21q57 51 108 56l33 3l72 -3q76 -10 127 -64l-4 15
l1 5q1 14 18 24q10 5 20 9zM721 450l-11 -23l3 -63l5 36zM766 375q-2 -5 -18 -12t-23 -7h-12v5l-54 -226l30 -11q52 106 77 251zM696 68l-39 5l27 -15zM188 441v97h-43l-19 22v-110q16 14 27 14q27 0 35 -23zM195 408v5l-6 24l4 -51zM141 367l-12 81l-5 -17v-27zM250 138
q-40 123 -54 219l-3 26q-6 -24 -28 -23l-14 1q-6 0 -9 3v-3q25 -136 83 -237zM269 69l-13 13l-31 -16h-5l9 -12l35 14z" />
    <glyph glyph-name="equal" unicode="=" horiz-adv-x="934" 
d="M573 399q0 -34 -45 -34h-196v288h196q45 0 45 -35v-219zM482 419v104q0 15 -20 15h-15q-21 0 -21 -15v-104q0 -14 21 -14h15q20 0 20 14zM838 504l-11 -93q-14 -130 -94 -311l11 -34q-4 -26 -31 -63l-139 56v28q0 7 19 58q11 31 22 63q26 83 31 132l9 82l-2 91l-2 24
q-10 99 -77 159q-36 33 -95 46l-14 2l-46 -2q-48 -3 -94 -47q-61 -59 -71 -149l-3 -30l-2 -52l10 -98q11 -108 91 -305q-37 -18 -73 -36q-43 -20 -74 -24l-7 -1q-13 23 -30 68l10 22q-78 194 -92 316l-8 60l-3 90l7 66q5 20 13 59q11 70 83 145q68 70 139 96v40h290l-14 -40
l78 -50q47 -33 75 -71q78 -105 89 -205l3 -29zM773 607q-15 70 -59 135v-17q0 -11 -11 -20t-21 -9h-23q27 -42 43 -90q1 13 11 22.5t23 8.5l20 -1q3 1 17 -29zM531 895v8h-150v-8h150zM778 444v121q-3 -34 -28 -34h-24l-10 17l3 -26l3 -71l24 11q20 -2 32 -18zM781 404v15
l-5 22l-10 -65zM674 793q-37 40 -78 59v-37h-281v39h-3q-17 0 -65 -46q-43 -40 -63 -67q-31 -44 -46 -103l24 2q12 0 22.5 -10.5t10.5 -21.5v-29q12 84 60 141l-35 -15l-17 36v14q0 2 3 8q10 24 50 33l28 -2l3 -9v-15l-4 -21q57 51 108 56l33 3l72 -3q76 -10 127 -64l-4 15
l1 5q1 14 18 24q10 5 20 9zM721 450l-11 -23l3 -63l5 36zM766 375q-2 -5 -18 -12t-23 -7h-12v5l-54 -226l30 -11q52 106 77 251zM696 68l-39 5l27 -15zM188 441v97h-43l-19 22v-110q16 14 27 14q27 0 35 -23zM195 408v5l-6 24l4 -51zM141 367l-12 81l-5 -17v-27zM250 138
q-40 123 -54 219l-3 26q-6 -24 -28 -23l-14 1q-6 0 -9 3v-3q25 -136 83 -237zM269 69l-13 13l-31 -16h-5l9 -12l35 14z" />
    <glyph glyph-name="greater" unicode="&#x3e;" horiz-adv-x="934" 
d="M573 399q0 -34 -45 -34h-196v288h196q45 0 45 -35v-219zM482 419v104q0 15 -20 15h-15q-21 0 -21 -15v-104q0 -14 21 -14h15q20 0 20 14zM838 504l-11 -93q-14 -130 -94 -311l11 -34q-4 -26 -31 -63l-139 56v28q0 7 19 58q11 31 22 63q26 83 31 132l9 82l-2 91l-2 24
q-10 99 -77 159q-36 33 -95 46l-14 2l-46 -2q-48 -3 -94 -47q-61 -59 -71 -149l-3 -30l-2 -52l10 -98q11 -108 91 -305q-37 -18 -73 -36q-43 -20 -74 -24l-7 -1q-13 23 -30 68l10 22q-78 194 -92 316l-8 60l-3 90l7 66q5 20 13 59q11 70 83 145q68 70 139 96v40h290l-14 -40
l78 -50q47 -33 75 -71q78 -105 89 -205l3 -29zM773 607q-15 70 -59 135v-17q0 -11 -11 -20t-21 -9h-23q27 -42 43 -90q1 13 11 22.5t23 8.5l20 -1q3 1 17 -29zM531 895v8h-150v-8h150zM778 444v121q-3 -34 -28 -34h-24l-10 17l3 -26l3 -71l24 11q20 -2 32 -18zM781 404v15
l-5 22l-10 -65zM674 793q-37 40 -78 59v-37h-281v39h-3q-17 0 -65 -46q-43 -40 -63 -67q-31 -44 -46 -103l24 2q12 0 22.5 -10.5t10.5 -21.5v-29q12 84 60 141l-35 -15l-17 36v14q0 2 3 8q10 24 50 33l28 -2l3 -9v-15l-4 -21q57 51 108 56l33 3l72 -3q76 -10 127 -64l-4 15
l1 5q1 14 18 24q10 5 20 9zM721 450l-11 -23l3 -63l5 36zM766 375q-2 -5 -18 -12t-23 -7h-12v5l-54 -226l30 -11q52 106 77 251zM696 68l-39 5l27 -15zM188 441v97h-43l-19 22v-110q16 14 27 14q27 0 35 -23zM195 408v5l-6 24l4 -51zM141 367l-12 81l-5 -17v-27zM250 138
q-40 123 -54 219l-3 26q-6 -24 -28 -23l-14 1q-6 0 -9 3v-3q25 -136 83 -237zM269 69l-13 13l-31 -16h-5l9 -12l35 14z" />
    <glyph glyph-name="question" unicode="?" horiz-adv-x="867" 
d="M768 298q-20 -19 -97 -19h-444q0 20 5 44q12 45 53 61q28 12 85 12h65q23 0 41 10q22 13 22 35v97q0 22 -22 35q-18 11 -41 11h-46q-22 0 -41 -12q-22 -13 -22 -34v-62h-278v353q0 48 46 78q41 26 92 26h459q52 0 92 -25q47 -30 47 -79v-460q0 -56 -16 -71zM168 56h-46
q-28 0 -50 15q-26 17 -26 43v64q0 26 26 43q22 15 50 15h46q28 0 50 -15q26 -17 26 -43v-64q0 -26 -26 -43q-22 -15 -50 -15z" />
    <glyph glyph-name="at" unicode="@" horiz-adv-x="1273" 
d="M1051 56h-461q-51 0 -92 26q-47 30 -47 79v250q0 29 20 45.5t49 16.5h218v-254q0 -21 22 -34q19 -11 41 -11h46q23 0 41 11q22 12 22 34v319q0 22 -22 35q-18 11 -41 11h-525v-305h-293l1 550q0 49 47 79q41 25 92 25h882q52 0 92 -25q47 -30 47 -79v-668q0 -49 -47 -79
q-40 -26 -92 -26z" />
    <glyph glyph-name="A" unicode="A" horiz-adv-x="866" 
d="M504 56v63q0 21 -20.5 33t-42.5 12h-46q-22 0 -41 -11q-22 -13 -22 -34v-63h-286v773q0 49 47 79q40 25 92 25h459q52 0 92 -25q47 -30 47 -79v-773h-279zM504 538q0 21 -20.5 33.5t-42.5 12.5h-46q-22 0 -41 -12q-22 -13 -22 -34v-201q0 -21 22 -34q19 -11 41 -11h46
q22 0 42.5 12t20.5 33v201z" />
    <glyph glyph-name="B" unicode="B" horiz-adv-x="866" 
d="M644 56h-598v877h598q52 0 92 -25q47 -30 47 -79v-444l-113 -46l113 -49v-129q0 -49 -47 -79q-40 -26 -92 -26zM504 538q0 21 -20.5 33.5t-42.5 12.5h-46q-22 0 -41 -12q-22 -13 -22 -34v-97q0 -21 22 -34q19 -11 41 -11h46q22 0 42.5 12t20.5 33v97zM504 234
q0 21 -20.5 33t-42.5 12h-46q-22 0 -41 -11q-22 -13 -22 -34v-11q0 -21 22 -34q19 -11 41 -11h46q22 0 42.5 12t20.5 33v11z" />
    <glyph glyph-name="C" unicode="C" horiz-adv-x="866" 
d="M644 56h-459q-52 0 -92 26q-47 30 -47 79v668q0 49 47 79q40 25 92 25h459q52 0 92 -25q47 -30 47 -79v-446h-279v155q0 21 -20.5 33.5t-42.5 12.5h-46q-22 0 -41 -12q-22 -13 -22 -34v-316q0 -21 22 -34q19 -11 41 -11h46q22 0 42.5 12t20.5 33v70h279v-131
q0 -49 -47 -79q-40 -26 -92 -26z" />
    <glyph glyph-name="D" unicode="D" horiz-adv-x="864" 
d="M643 56h-597v877h597q51 0 92 -25q46 -30 46 -79v-668q0 -49 -46 -79q-41 -26 -92 -26zM504 538q0 21 -20.5 33.5t-42.5 12.5h-46q-22 0 -41 -12q-22 -13 -22 -34v-316q0 -21 22 -34q19 -11 41 -11h46q22 0 42.5 12t20.5 33v316z" />
    <glyph glyph-name="E" unicode="E" horiz-adv-x="867" 
d="M395 279q-22 0 -41 -11q-22 -13 -22 -34v-12q0 -21 22 -34q19 -11 41 -11h388v-121h-598q-35 0 -137 3l-2 102v668q0 26 2 104h735v-349h-388q-22 0 -41 -12q-22 -13 -22 -34v-97q0 -21 22 -34q19 -11 41 -11h389v-117h-389z" />
    <glyph glyph-name="F" unicode="F" horiz-adv-x="867" 
d="M332 279v-223h-286v773q0 26 2 104h735v-349h-388q-22 0 -41 -12q-22 -13 -22 -34v-97q0 -21 22 -34q19 -11 41 -11h389v-117h-452z" />
    <glyph glyph-name="G" unicode="G" horiz-adv-x="866" 
d="M480 581q-23 3 -39 3h-46q-22 0 -41 -12q-22 -13 -22 -34v-316q0 -21 22 -34q19 -11 41 -11h46q22 0 42.5 12t20.5 33l-1 250h279l1 -311q0 -49 -47 -79q-40 -26 -92 -26h-459q-52 0 -92 26q-47 30 -47 79v668q0 49 47 79q40 25 92 25h459q52 0 92 -25q47 -30 47 -79
v-248h-303z" />
    <glyph glyph-name="H" unicode="H" horiz-adv-x="866" 
d="M504 56v66q0 21 -20.5 33t-42.5 12h-46q-22 0 -41 -11q-22 -13 -22 -34v-66h-286v877h286v-492q0 -21 22 -34q19 -11 41 -11h46q22 0 42.5 12t20.5 33v492h279v-877h-279z" />
    <glyph glyph-name="I" unicode="I" horiz-adv-x="429" 
d="M65 56v877h281v-877h-281z" />
    <glyph glyph-name="J" unicode="J" horiz-adv-x="866" 
d="M644 56h-459q-52 0 -92 26q-47 30 -47 79v235h286v-174q0 -21 22 -34q19 -11 41 -11h46q22 0 42.5 12t20.5 33v712l279 -9v-764q0 -49 -47 -79q-40 -26 -92 -26z" />
    <glyph glyph-name="K" unicode="K" horiz-adv-x="863" 
d="M567 337l237 -281h-336l-120 206l-18 1v-207h-286v877h286v-502h12l162 502h327z" />
    <glyph glyph-name="L" unicode="L" horiz-adv-x="866" 
d="M644 56h-459q-52 0 -92 26q-47 30 -47 79v772h286v-711q0 -21 22 -34q19 -11 41 -11h46q22 0 42.5 12t20.5 33v174h279v-235q0 -49 -47 -79q-40 -26 -92 -26z" />
    <glyph glyph-name="M" unicode="M" horiz-adv-x="1052" 
d="M682 56v245l-73 -245h-203l-81 249v-249h-287v878h183q135 0 159 -74q40 -123 124 -459q50 192 108 455q18 78 158 78h198v-878h-286z" />
    <glyph glyph-name="N" unicode="N" horiz-adv-x="935" 
d="M487 56l-158 198v-198h-286v877h319l203 -602v602h286v-877h-364z" />
    <glyph glyph-name="O" unicode="O" horiz-adv-x="866" 
d="M644 56h-459q-52 0 -92 26q-47 30 -47 79v668q0 49 47 79q40 25 92 25h459q52 0 92 -25q47 -30 47 -79v-668q0 -49 -47 -79q-40 -26 -92 -26zM504 538q0 21 -20.5 33.5t-42.5 12.5h-46q-22 0 -41 -12q-22 -13 -22 -34v-319q0 -21 22 -34q19 -11 41 -11h46q22 0 42.5 12
t20.5 33v319z" />
    <glyph glyph-name="P" unicode="P" horiz-adv-x="866" 
d="M644 164h-312v-108h-286v877h598q52 0 92 -25q47 -30 47 -79v-560q0 -49 -47 -79q-40 -26 -92 -26zM504 538q0 21 -20.5 33.5t-42.5 12.5h-109v-292h110q22 0 42.5 12t20.5 33z" />
    <glyph glyph-name="Q" unicode="Q" horiz-adv-x="866" 
d="M644 51h-127v-73l-198 1v72h-134q-52 0 -92 26q-47 29 -47 78v669q0 49 47 79q40 25 92 25h459q52 0 92 -25q47 -30 47 -79v-669q0 -49 -47 -78q-40 -26 -92 -26zM504 533q0 21 -20.5 33t-42.5 12h-46q-22 0 -41 -11q-22 -13 -22 -34v-319q0 -21 22 -35q19 -11 41 -11h46
q22 0 42.5 12.5t20.5 33.5v319z" />
    <glyph glyph-name="R" unicode="R" horiz-adv-x="872" 
d="M507 56l-102 108h-73v-108h-286v877h598q51 0 92 -25q46 -30 46 -79v-560q0 -36 -27 -62.5t-65 -36.5l108 -114h-291zM503 538q0 21 -22 34q-18 12 -41 12h-108v-292h110q22 0 42.5 12t20.5 33z" />
    <glyph glyph-name="S" unicode="S" horiz-adv-x="866" 
d="M644 56h-459q-35 0 -137 3q-4 80 0 121l393 -2q22 0 42.5 12t20.5 33v9q0 22 -19.5 34.5t-42.5 12.5h-283q-74 0 -95 19q-18 16 -18 71v460q0 49 47 79q40 25 92 25h459q52 0 92 -25q47 -30 47 -79v-353h-279v62q0 21 -20.5 33.5t-42.5 12.5h-46q-22 0 -41 -12
q-22 -13 -22 -34v-97q0 -21 22 -34q19 -11 41 -11h245q82 0 112.5 -28.5t30.5 -105.5v-101q0 -105 -139 -105z" />
    <glyph glyph-name="T" unicode="T" horiz-adv-x="866" 
d="M558 584v-528h-286v528h-226v349h737v-349h-225z" />
    <glyph glyph-name="U" unicode="U" horiz-adv-x="866" 
d="M185 56q-52 0 -92 26q-47 30 -47 79v772h286v-711q0 -21 22 -34q19 -11 41 -11h46q22 0 42.5 12t20.5 33v711h279v-877h-598z" />
    <glyph glyph-name="V" unicode="V" horiz-adv-x="922" 
d="M687 56h-457l-188 877h319l83 -756h23l67 756h306z" />
    <glyph glyph-name="W" unicode="W" horiz-adv-x="1118" 
d="M1010 225q-13 -62 -75 -169h-304l-85 170l-97 -170h-298q-43 77 -72 148q-44 106 -44 393v336h287v-703q61 73 71 111q17 62 20 174h-3v418h240v-412q0 -100 28 -169q18 -45 70 -113v694h286v-343q0 -249 -24 -365z" />
    <glyph glyph-name="X" unicode="X" horiz-adv-x="1010" 
d="M720 287l171 -231h-322l-51 137l-26 -1l-61 -136h-308l153 230l-239 647h339l117 -503h15l98 503h324z" />
    <glyph glyph-name="Y" unicode="Y" horiz-adv-x="866" 
d="M504 56v66q0 21 -22 33q-18 9 -41 9h-256q-52 0 -92 26q-47 30 -47 79v664h286v-603q0 -21 22 -34q19 -11 41 -11h46q51 0 61 35l2 613h279v-877h-279z" />
    <glyph glyph-name="Z" unicode="Z" horiz-adv-x="873" 
d="M788 608q0 -42 -49 -85q-28 -24 -85 -71q-61 -50 -182 -150q-116 -96 -149 -127q69 -2 445 2v-121h-710q-4 74 6.5 97t154.5 147q14 13 49 45q17 15 155 128q95 78 127 112q-3 0 -8 -1h-496v349h744v-107q-2 -188 -2 -218z" />
    <glyph glyph-name="bracketleft" unicode="[" horiz-adv-x="934" 
d="M573 399q0 -34 -45 -34h-196v288h196q45 0 45 -35v-219zM482 419v104q0 15 -20 15h-15q-21 0 -21 -15v-104q0 -14 21 -14h15q20 0 20 14zM838 504l-11 -93q-14 -130 -94 -311l11 -34q-4 -26 -31 -63l-139 56v28q0 7 19 58q11 31 22 63q26 83 31 132l9 82l-2 91l-2 24
q-10 99 -77 159q-36 33 -95 46l-14 2l-46 -2q-48 -3 -94 -47q-61 -59 -71 -149l-3 -30l-2 -52l10 -98q11 -108 91 -305q-37 -18 -73 -36q-43 -20 -74 -24l-7 -1q-13 23 -30 68l10 22q-78 194 -92 316l-8 60l-3 90l7 66q5 20 13 59q11 70 83 145q68 70 139 96v40h290l-14 -40
l78 -50q47 -33 75 -71q78 -105 89 -205l3 -29zM773 607q-15 70 -59 135v-17q0 -11 -11 -20t-21 -9h-23q27 -42 43 -90q1 13 11 22.5t23 8.5l20 -1q3 1 17 -29zM531 895v8h-150v-8h150zM778 444v121q-3 -34 -28 -34h-24l-10 17l3 -26l3 -71l24 11q20 -2 32 -18zM781 404v15
l-5 22l-10 -65zM674 793q-37 40 -78 59v-37h-281v39h-3q-17 0 -65 -46q-43 -40 -63 -67q-31 -44 -46 -103l24 2q12 0 22.5 -10.5t10.5 -21.5v-29q12 84 60 141l-35 -15l-17 36v14q0 2 3 8q10 24 50 33l28 -2l3 -9v-15l-4 -21q57 51 108 56l33 3l72 -3q76 -10 127 -64l-4 15
l1 5q1 14 18 24q10 5 20 9zM721 450l-11 -23l3 -63l5 36zM766 375q-2 -5 -18 -12t-23 -7h-12v5l-54 -226l30 -11q52 106 77 251zM696 68l-39 5l27 -15zM188 441v97h-43l-19 22v-110q16 14 27 14q27 0 35 -23zM195 408v5l-6 24l4 -51zM141 367l-12 81l-5 -17v-27zM250 138
q-40 123 -54 219l-3 26q-6 -24 -28 -23l-14 1q-6 0 -9 3v-3q25 -136 83 -237zM269 69l-13 13l-31 -16h-5l9 -12l35 14z" />
    <glyph glyph-name="backslash" unicode="\" horiz-adv-x="934" 
d="M573 399q0 -34 -45 -34h-196v288h196q45 0 45 -35v-219zM482 419v104q0 15 -20 15h-15q-21 0 -21 -15v-104q0 -14 21 -14h15q20 0 20 14zM838 504l-11 -93q-14 -130 -94 -311l11 -34q-4 -26 -31 -63l-139 56v28q0 7 19 58q11 31 22 63q26 83 31 132l9 82l-2 91l-2 24
q-10 99 -77 159q-36 33 -95 46l-14 2l-46 -2q-48 -3 -94 -47q-61 -59 -71 -149l-3 -30l-2 -52l10 -98q11 -108 91 -305q-37 -18 -73 -36q-43 -20 -74 -24l-7 -1q-13 23 -30 68l10 22q-78 194 -92 316l-8 60l-3 90l7 66q5 20 13 59q11 70 83 145q68 70 139 96v40h290l-14 -40
l78 -50q47 -33 75 -71q78 -105 89 -205l3 -29zM773 607q-15 70 -59 135v-17q0 -11 -11 -20t-21 -9h-23q27 -42 43 -90q1 13 11 22.5t23 8.5l20 -1q3 1 17 -29zM531 895v8h-150v-8h150zM778 444v121q-3 -34 -28 -34h-24l-10 17l3 -26l3 -71l24 11q20 -2 32 -18zM781 404v15
l-5 22l-10 -65zM674 793q-37 40 -78 59v-37h-281v39h-3q-17 0 -65 -46q-43 -40 -63 -67q-31 -44 -46 -103l24 2q12 0 22.5 -10.5t10.5 -21.5v-29q12 84 60 141l-35 -15l-17 36v14q0 2 3 8q10 24 50 33l28 -2l3 -9v-15l-4 -21q57 51 108 56l33 3l72 -3q76 -10 127 -64l-4 15
l1 5q1 14 18 24q10 5 20 9zM721 450l-11 -23l3 -63l5 36zM766 375q-2 -5 -18 -12t-23 -7h-12v5l-54 -226l30 -11q52 106 77 251zM696 68l-39 5l27 -15zM188 441v97h-43l-19 22v-110q16 14 27 14q27 0 35 -23zM195 408v5l-6 24l4 -51zM141 367l-12 81l-5 -17v-27zM250 138
q-40 123 -54 219l-3 26q-6 -24 -28 -23l-14 1q-6 0 -9 3v-3q25 -136 83 -237zM269 69l-13 13l-31 -16h-5l9 -12l35 14z" />
    <glyph glyph-name="bracketright" unicode="]" horiz-adv-x="934" 
d="M573 399q0 -34 -45 -34h-196v288h196q45 0 45 -35v-219zM482 419v104q0 15 -20 15h-15q-21 0 -21 -15v-104q0 -14 21 -14h15q20 0 20 14zM838 504l-11 -93q-14 -130 -94 -311l11 -34q-4 -26 -31 -63l-139 56v28q0 7 19 58q11 31 22 63q26 83 31 132l9 82l-2 91l-2 24
q-10 99 -77 159q-36 33 -95 46l-14 2l-46 -2q-48 -3 -94 -47q-61 -59 -71 -149l-3 -30l-2 -52l10 -98q11 -108 91 -305q-37 -18 -73 -36q-43 -20 -74 -24l-7 -1q-13 23 -30 68l10 22q-78 194 -92 316l-8 60l-3 90l7 66q5 20 13 59q11 70 83 145q68 70 139 96v40h290l-14 -40
l78 -50q47 -33 75 -71q78 -105 89 -205l3 -29zM773 607q-15 70 -59 135v-17q0 -11 -11 -20t-21 -9h-23q27 -42 43 -90q1 13 11 22.5t23 8.5l20 -1q3 1 17 -29zM531 895v8h-150v-8h150zM778 444v121q-3 -34 -28 -34h-24l-10 17l3 -26l3 -71l24 11q20 -2 32 -18zM781 404v15
l-5 22l-10 -65zM674 793q-37 40 -78 59v-37h-281v39h-3q-17 0 -65 -46q-43 -40 -63 -67q-31 -44 -46 -103l24 2q12 0 22.5 -10.5t10.5 -21.5v-29q12 84 60 141l-35 -15l-17 36v14q0 2 3 8q10 24 50 33l28 -2l3 -9v-15l-4 -21q57 51 108 56l33 3l72 -3q76 -10 127 -64l-4 15
l1 5q1 14 18 24q10 5 20 9zM721 450l-11 -23l3 -63l5 36zM766 375q-2 -5 -18 -12t-23 -7h-12v5l-54 -226l30 -11q52 106 77 251zM696 68l-39 5l27 -15zM188 441v97h-43l-19 22v-110q16 14 27 14q27 0 35 -23zM195 408v5l-6 24l4 -51zM141 367l-12 81l-5 -17v-27zM250 138
q-40 123 -54 219l-3 26q-6 -24 -28 -23l-14 1q-6 0 -9 3v-3q25 -136 83 -237zM269 69l-13 13l-31 -16h-5l9 -12l35 14z" />
    <glyph glyph-name="asciicircum" unicode="^" horiz-adv-x="934" 
d="M573 399q0 -34 -45 -34h-196v288h196q45 0 45 -35v-219zM482 419v104q0 15 -20 15h-15q-21 0 -21 -15v-104q0 -14 21 -14h15q20 0 20 14zM838 504l-11 -93q-14 -130 -94 -311l11 -34q-4 -26 -31 -63l-139 56v28q0 7 19 58q11 31 22 63q26 83 31 132l9 82l-2 91l-2 24
q-10 99 -77 159q-36 33 -95 46l-14 2l-46 -2q-48 -3 -94 -47q-61 -59 -71 -149l-3 -30l-2 -52l10 -98q11 -108 91 -305q-37 -18 -73 -36q-43 -20 -74 -24l-7 -1q-13 23 -30 68l10 22q-78 194 -92 316l-8 60l-3 90l7 66q5 20 13 59q11 70 83 145q68 70 139 96v40h290l-14 -40
l78 -50q47 -33 75 -71q78 -105 89 -205l3 -29zM773 607q-15 70 -59 135v-17q0 -11 -11 -20t-21 -9h-23q27 -42 43 -90q1 13 11 22.5t23 8.5l20 -1q3 1 17 -29zM531 895v8h-150v-8h150zM778 444v121q-3 -34 -28 -34h-24l-10 17l3 -26l3 -71l24 11q20 -2 32 -18zM781 404v15
l-5 22l-10 -65zM674 793q-37 40 -78 59v-37h-281v39h-3q-17 0 -65 -46q-43 -40 -63 -67q-31 -44 -46 -103l24 2q12 0 22.5 -10.5t10.5 -21.5v-29q12 84 60 141l-35 -15l-17 36v14q0 2 3 8q10 24 50 33l28 -2l3 -9v-15l-4 -21q57 51 108 56l33 3l72 -3q76 -10 127 -64l-4 15
l1 5q1 14 18 24q10 5 20 9zM721 450l-11 -23l3 -63l5 36zM766 375q-2 -5 -18 -12t-23 -7h-12v5l-54 -226l30 -11q52 106 77 251zM696 68l-39 5l27 -15zM188 441v97h-43l-19 22v-110q16 14 27 14q27 0 35 -23zM195 408v5l-6 24l4 -51zM141 367l-12 81l-5 -17v-27zM250 138
q-40 123 -54 219l-3 26q-6 -24 -28 -23l-14 1q-6 0 -9 3v-3q25 -136 83 -237zM269 69l-13 13l-31 -16h-5l9 -12l35 14z" />
    <glyph glyph-name="underscore" unicode="_" horiz-adv-x="743" 
d="M-42 -219v145h795v-144z" />
    <glyph glyph-name="grave" unicode="`" horiz-adv-x="934" 
d="M573 399q0 -34 -45 -34h-196v288h196q45 0 45 -35v-219zM482 419v104q0 15 -20 15h-15q-21 0 -21 -15v-104q0 -14 21 -14h15q20 0 20 14zM838 504l-11 -93q-14 -130 -94 -311l11 -34q-4 -26 -31 -63l-139 56v28q0 7 19 58q11 31 22 63q26 83 31 132l9 82l-2 91l-2 24
q-10 99 -77 159q-36 33 -95 46l-14 2l-46 -2q-48 -3 -94 -47q-61 -59 -71 -149l-3 -30l-2 -52l10 -98q11 -108 91 -305q-37 -18 -73 -36q-43 -20 -74 -24l-7 -1q-13 23 -30 68l10 22q-78 194 -92 316l-8 60l-3 90l7 66q5 20 13 59q11 70 83 145q68 70 139 96v40h290l-14 -40
l78 -50q47 -33 75 -71q78 -105 89 -205l3 -29zM773 607q-15 70 -59 135v-17q0 -11 -11 -20t-21 -9h-23q27 -42 43 -90q1 13 11 22.5t23 8.5l20 -1q3 1 17 -29zM531 895v8h-150v-8h150zM778 444v121q-3 -34 -28 -34h-24l-10 17l3 -26l3 -71l24 11q20 -2 32 -18zM781 404v15
l-5 22l-10 -65zM674 793q-37 40 -78 59v-37h-281v39h-3q-17 0 -65 -46q-43 -40 -63 -67q-31 -44 -46 -103l24 2q12 0 22.5 -10.5t10.5 -21.5v-29q12 84 60 141l-35 -15l-17 36v14q0 2 3 8q10 24 50 33l28 -2l3 -9v-15l-4 -21q57 51 108 56l33 3l72 -3q76 -10 127 -64l-4 15
l1 5q1 14 18 24q10 5 20 9zM721 450l-11 -23l3 -63l5 36zM766 375q-2 -5 -18 -12t-23 -7h-12v5l-54 -226l30 -11q52 106 77 251zM696 68l-39 5l27 -15zM188 441v97h-43l-19 22v-110q16 14 27 14q27 0 35 -23zM195 408v5l-6 24l4 -51zM141 367l-12 81l-5 -17v-27zM250 138
q-40 123 -54 219l-3 26q-6 -24 -28 -23l-14 1q-6 0 -9 3v-3q25 -136 83 -237zM269 69l-13 13l-31 -16h-5l9 -12l35 14z" />
    <glyph glyph-name="a" unicode="a" horiz-adv-x="866" 
d="M504 56v63q0 21 -20.5 33t-42.5 12h-46q-22 0 -41 -11q-22 -13 -22 -34v-63h-286v773q0 49 47 79q40 25 92 25h459q52 0 92 -25q47 -30 47 -79v-773h-279zM504 538q0 21 -20.5 33.5t-42.5 12.5h-46q-22 0 -41 -12q-22 -13 -22 -34v-201q0 -21 22 -34q19 -11 41 -11h46
q22 0 42.5 12t20.5 33v201z" />
    <glyph glyph-name="b" unicode="b" horiz-adv-x="866" 
d="M644 56h-598v877h598q52 0 92 -25q47 -30 47 -79v-444l-113 -46l113 -49v-129q0 -49 -47 -79q-40 -26 -92 -26zM504 538q0 21 -20.5 33.5t-42.5 12.5h-46q-22 0 -41 -12q-22 -13 -22 -34v-97q0 -21 22 -34q19 -11 41 -11h46q22 0 42.5 12t20.5 33v97zM504 234
q0 21 -20.5 33t-42.5 12h-46q-22 0 -41 -11q-22 -13 -22 -34v-11q0 -21 22 -34q19 -11 41 -11h46q22 0 42.5 12t20.5 33v11z" />
    <glyph glyph-name="c" unicode="c" horiz-adv-x="866" 
d="M644 56h-459q-52 0 -92 26q-47 30 -47 79v668q0 49 47 79q40 25 92 25h459q52 0 92 -25q47 -30 47 -79v-446h-279v155q0 21 -20.5 33.5t-42.5 12.5h-46q-22 0 -41 -12q-22 -13 -22 -34v-316q0 -21 22 -34q19 -11 41 -11h46q22 0 42.5 12t20.5 33v70h279v-131
q0 -49 -47 -79q-40 -26 -92 -26z" />
    <glyph glyph-name="d" unicode="d" horiz-adv-x="864" 
d="M643 56h-597v877h597q51 0 92 -25q46 -30 46 -79v-668q0 -49 -46 -79q-41 -26 -92 -26zM504 538q0 21 -20.5 33.5t-42.5 12.5h-46q-22 0 -41 -12q-22 -13 -22 -34v-316q0 -21 22 -34q19 -11 41 -11h46q22 0 42.5 12t20.5 33v316z" />
    <glyph glyph-name="e" unicode="e" horiz-adv-x="867" 
d="M395 279q-22 0 -41 -11q-22 -13 -22 -34v-12q0 -21 22 -34q19 -11 41 -11h388v-121h-598q-35 0 -137 3l-2 102v668q0 26 2 104h735v-349h-388q-22 0 -41 -12q-22 -13 -22 -34v-97q0 -21 22 -34q19 -11 41 -11h389v-117h-389z" />
    <glyph glyph-name="f" unicode="f" horiz-adv-x="867" 
d="M332 279v-223h-286v773q0 26 2 104h735v-349h-388q-22 0 -41 -12q-22 -13 -22 -34v-97q0 -21 22 -34q19 -11 41 -11h389v-117h-452z" />
    <glyph glyph-name="g" unicode="g" horiz-adv-x="866" 
d="M480 581q-23 3 -39 3h-46q-22 0 -41 -12q-22 -13 -22 -34v-316q0 -21 22 -34q19 -11 41 -11h46q22 0 42.5 12t20.5 33l-1 250h279l1 -311q0 -49 -47 -79q-40 -26 -92 -26h-459q-52 0 -92 26q-47 30 -47 79v668q0 49 47 79q40 25 92 25h459q52 0 92 -25q47 -30 47 -79
v-248h-303z" />
    <glyph glyph-name="h" unicode="h" horiz-adv-x="866" 
d="M504 56v66q0 21 -20.5 33t-42.5 12h-46q-22 0 -41 -11q-22 -13 -22 -34v-66h-286v877h286v-492q0 -21 22 -34q19 -11 41 -11h46q22 0 42.5 12t20.5 33v492h279v-877h-279z" />
    <glyph glyph-name="i" unicode="i" horiz-adv-x="429" 
d="M65 56v877h281v-877h-281z" />
    <glyph glyph-name="j" unicode="j" horiz-adv-x="866" 
d="M644 56h-459q-52 0 -92 26q-47 30 -47 79v235h286v-174q0 -21 22 -34q19 -11 41 -11h46q22 0 42.5 12t20.5 33v712l279 -9v-764q0 -49 -47 -79q-40 -26 -92 -26z" />
    <glyph glyph-name="k" unicode="k" horiz-adv-x="863" 
d="M567 337l237 -281h-336l-120 206l-18 1v-207h-286v877h286v-502h12l162 502h327z" />
    <glyph glyph-name="l" unicode="l" horiz-adv-x="866" 
d="M644 56h-459q-52 0 -92 26q-47 30 -47 79v772h286v-711q0 -21 22 -34q19 -11 41 -11h46q22 0 42.5 12t20.5 33v174h279v-235q0 -49 -47 -79q-40 -26 -92 -26z" />
    <glyph glyph-name="m" unicode="m" horiz-adv-x="1052" 
d="M682 56v245l-73 -245h-203l-81 249v-249h-287v878h183q135 0 159 -74q40 -123 124 -459q50 192 108 455q18 78 158 78h198v-878h-286z" />
    <glyph glyph-name="n" unicode="n" horiz-adv-x="935" 
d="M487 56l-155 198l-3 -198h-286v877h319l203 -602v602h286v-877h-364z" />
    <glyph glyph-name="o" unicode="o" horiz-adv-x="866" 
d="M644 56h-459q-52 0 -92 26q-47 30 -47 79v668q0 49 47 79q40 25 92 25h459q52 0 92 -25q47 -30 47 -79v-668q0 -49 -47 -79q-40 -26 -92 -26zM504 538q0 21 -20.5 33.5t-42.5 12.5h-46q-22 0 -41 -12q-22 -13 -22 -34v-319q0 -21 22 -34q19 -11 41 -11h46q22 0 42.5 12
t20.5 33v319z" />
    <glyph glyph-name="p" unicode="p" horiz-adv-x="866" 
d="M644 164h-312v-108h-286v877h598q52 0 92 -25q47 -30 47 -79v-560q0 -49 -47 -79q-40 -26 -92 -26zM504 538q0 21 -20.5 33.5t-42.5 12.5h-109v-292h110q22 0 42.5 12t20.5 33z" />
    <glyph glyph-name="q" unicode="q" horiz-adv-x="866" 
d="M644 51h-127v-73l-198 1v72h-134q-52 0 -92 26q-47 29 -47 78v669q0 49 47 79q40 25 92 25h459q52 0 92 -25q47 -30 47 -79v-669q0 -49 -47 -78q-40 -26 -92 -26zM504 533q0 21 -20.5 33t-42.5 12h-46q-22 0 -41 -11q-22 -13 -22 -34v-319q0 -21 22 -35q19 -11 41 -11h46
q22 0 42.5 12.5t20.5 33.5v319z" />
    <glyph glyph-name="r" unicode="r" horiz-adv-x="872" 
d="M507 56l-102 108h-73v-108h-286v877h598q51 0 92 -25q46 -30 46 -79v-560q0 -36 -27 -62.5t-65 -36.5l108 -114h-291zM503 538q0 21 -22 34q-18 12 -41 12h-108v-292h110q22 0 42.5 12t20.5 33z" />
    <glyph glyph-name="s" unicode="s" horiz-adv-x="866" 
d="M644 56h-459q-35 0 -137 3q-4 80 0 121l393 -2q22 0 42.5 12t20.5 33v9q0 22 -19.5 34.5t-42.5 12.5h-283q-74 0 -95 19q-18 16 -18 71v460q0 49 47 79q40 25 92 25h459q52 0 92 -25q47 -30 47 -79v-353h-279v62q0 21 -20.5 33.5t-42.5 12.5h-46q-22 0 -41 -12
q-22 -13 -22 -34v-97q0 -21 22 -34q19 -11 41 -11h245q82 0 112.5 -28.5t30.5 -105.5v-101q0 -105 -139 -105z" />
    <glyph glyph-name="t" unicode="t" horiz-adv-x="866" 
d="M558 584v-528h-286v528h-226v349h737v-349h-225z" />
    <glyph glyph-name="u" unicode="u" horiz-adv-x="866" 
d="M185 56q-52 0 -92 26q-47 30 -47 79v772h286v-711q0 -21 22 -34q19 -11 41 -11h46q22 0 42.5 12t20.5 33v711h279v-877h-598z" />
    <glyph glyph-name="v" unicode="v" horiz-adv-x="922" 
d="M687 56h-457l-188 877h319l83 -756h23l67 756h306z" />
    <glyph glyph-name="w" unicode="w" horiz-adv-x="1118" 
d="M1010 225q-13 -62 -75 -169h-304l-85 170l-97 -170h-298q-43 77 -72 148q-44 106 -44 393v336h287v-703q61 73 71 111q17 62 20 174h-3v418h240v-412q0 -100 28 -169q18 -45 70 -113v694h286v-343q0 -249 -24 -365z" />
    <glyph glyph-name="x" unicode="x" horiz-adv-x="1010" 
d="M720 287l171 -231h-322l-51 137l-26 -1l-61 -136h-308l153 230l-239 647h339l117 -503h15l98 503h324z" />
    <glyph glyph-name="y" unicode="y" horiz-adv-x="866" 
d="M504 56v66q0 21 -22 33q-18 9 -41 9h-256q-52 0 -92 26q-47 30 -47 79v664h286v-603q0 -21 22 -34q19 -11 41 -11h46q51 0 61 35l2 613h279v-877h-279z" />
    <glyph glyph-name="z" unicode="z" horiz-adv-x="873" 
d="M788 608q0 -42 -49 -85q-28 -24 -85 -71q-61 -50 -182 -150q-116 -96 -149 -127q69 -2 445 2v-121h-710q-4 74 6.5 97t154.5 147q14 13 49 45q17 15 155 128q95 78 127 112q-3 0 -8 -1h-496v349h744v-107q-2 -188 -2 -218z" />
    <glyph glyph-name="braceleft" unicode="{" horiz-adv-x="934" 
d="M573 399q0 -34 -45 -34h-196v288h196q45 0 45 -35v-219zM482 419v104q0 15 -20 15h-15q-21 0 -21 -15v-104q0 -14 21 -14h15q20 0 20 14zM838 504l-11 -93q-14 -130 -94 -311l11 -34q-4 -26 -31 -63l-139 56v28q0 7 19 58q11 31 22 63q26 83 31 132l9 82l-2 91l-2 24
q-10 99 -77 159q-36 33 -95 46l-14 2l-46 -2q-48 -3 -94 -47q-61 -59 -71 -149l-3 -30l-2 -52l10 -98q11 -108 91 -305q-37 -18 -73 -36q-43 -20 -74 -24l-7 -1q-13 23 -30 68l10 22q-78 194 -92 316l-8 60l-3 90l7 66q5 20 13 59q11 70 83 145q68 70 139 96v40h290l-14 -40
l78 -50q47 -33 75 -71q78 -105 89 -205l3 -29zM773 607q-15 70 -59 135v-17q0 -11 -11 -20t-21 -9h-23q27 -42 43 -90q1 13 11 22.5t23 8.5l20 -1q3 1 17 -29zM531 895v8h-150v-8h150zM778 444v121q-3 -34 -28 -34h-24l-10 17l3 -26l3 -71l24 11q20 -2 32 -18zM781 404v15
l-5 22l-10 -65zM674 793q-37 40 -78 59v-37h-281v39h-3q-17 0 -65 -46q-43 -40 -63 -67q-31 -44 -46 -103l24 2q12 0 22.5 -10.5t10.5 -21.5v-29q12 84 60 141l-35 -15l-17 36v14q0 2 3 8q10 24 50 33l28 -2l3 -9v-15l-4 -21q57 51 108 56l33 3l72 -3q76 -10 127 -64l-4 15
l1 5q1 14 18 24q10 5 20 9zM721 450l-11 -23l3 -63l5 36zM766 375q-2 -5 -18 -12t-23 -7h-12v5l-54 -226l30 -11q52 106 77 251zM696 68l-39 5l27 -15zM188 441v97h-43l-19 22v-110q16 14 27 14q27 0 35 -23zM195 408v5l-6 24l4 -51zM141 367l-12 81l-5 -17v-27zM250 138
q-40 123 -54 219l-3 26q-6 -24 -28 -23l-14 1q-6 0 -9 3v-3q25 -136 83 -237zM269 69l-13 13l-31 -16h-5l9 -12l35 14z" />
    <glyph glyph-name="bar" unicode="|" horiz-adv-x="934" 
d="M573 399q0 -34 -45 -34h-196v288h196q45 0 45 -35v-219zM482 419v104q0 15 -20 15h-15q-21 0 -21 -15v-104q0 -14 21 -14h15q20 0 20 14zM838 504l-11 -93q-14 -130 -94 -311l11 -34q-4 -26 -31 -63l-139 56v28q0 7 19 58q11 31 22 63q26 83 31 132l9 82l-2 91l-2 24
q-10 99 -77 159q-36 33 -95 46l-14 2l-46 -2q-48 -3 -94 -47q-61 -59 -71 -149l-3 -30l-2 -52l10 -98q11 -108 91 -305q-37 -18 -73 -36q-43 -20 -74 -24l-7 -1q-13 23 -30 68l10 22q-78 194 -92 316l-8 60l-3 90l7 66q5 20 13 59q11 70 83 145q68 70 139 96v40h290l-14 -40
l78 -50q47 -33 75 -71q78 -105 89 -205l3 -29zM773 607q-15 70 -59 135v-17q0 -11 -11 -20t-21 -9h-23q27 -42 43 -90q1 13 11 22.5t23 8.5l20 -1q3 1 17 -29zM531 895v8h-150v-8h150zM778 444v121q-3 -34 -28 -34h-24l-10 17l3 -26l3 -71l24 11q20 -2 32 -18zM781 404v15
l-5 22l-10 -65zM674 793q-37 40 -78 59v-37h-281v39h-3q-17 0 -65 -46q-43 -40 -63 -67q-31 -44 -46 -103l24 2q12 0 22.5 -10.5t10.5 -21.5v-29q12 84 60 141l-35 -15l-17 36v14q0 2 3 8q10 24 50 33l28 -2l3 -9v-15l-4 -21q57 51 108 56l33 3l72 -3q76 -10 127 -64l-4 15
l1 5q1 14 18 24q10 5 20 9zM721 450l-11 -23l3 -63l5 36zM766 375q-2 -5 -18 -12t-23 -7h-12v5l-54 -226l30 -11q52 106 77 251zM696 68l-39 5l27 -15zM188 441v97h-43l-19 22v-110q16 14 27 14q27 0 35 -23zM195 408v5l-6 24l4 -51zM141 367l-12 81l-5 -17v-27zM250 138
q-40 123 -54 219l-3 26q-6 -24 -28 -23l-14 1q-6 0 -9 3v-3q25 -136 83 -237zM269 69l-13 13l-31 -16h-5l9 -12l35 14z" />
    <glyph glyph-name="braceright" unicode="}" horiz-adv-x="934" 
d="M573 399q0 -34 -45 -34h-196v288h196q45 0 45 -35v-219zM482 419v104q0 15 -20 15h-15q-21 0 -21 -15v-104q0 -14 21 -14h15q20 0 20 14zM838 504l-11 -93q-14 -130 -94 -311l11 -34q-4 -26 -31 -63l-139 56v28q0 7 19 58q11 31 22 63q26 83 31 132l9 82l-2 91l-2 24
q-10 99 -77 159q-36 33 -95 46l-14 2l-46 -2q-48 -3 -94 -47q-61 -59 -71 -149l-3 -30l-2 -52l10 -98q11 -108 91 -305q-37 -18 -73 -36q-43 -20 -74 -24l-7 -1q-13 23 -30 68l10 22q-78 194 -92 316l-8 60l-3 90l7 66q5 20 13 59q11 70 83 145q68 70 139 96v40h290l-14 -40
l78 -50q47 -33 75 -71q78 -105 89 -205l3 -29zM773 607q-15 70 -59 135v-17q0 -11 -11 -20t-21 -9h-23q27 -42 43 -90q1 13 11 22.5t23 8.5l20 -1q3 1 17 -29zM531 895v8h-150v-8h150zM778 444v121q-3 -34 -28 -34h-24l-10 17l3 -26l3 -71l24 11q20 -2 32 -18zM781 404v15
l-5 22l-10 -65zM674 793q-37 40 -78 59v-37h-281v39h-3q-17 0 -65 -46q-43 -40 -63 -67q-31 -44 -46 -103l24 2q12 0 22.5 -10.5t10.5 -21.5v-29q12 84 60 141l-35 -15l-17 36v14q0 2 3 8q10 24 50 33l28 -2l3 -9v-15l-4 -21q57 51 108 56l33 3l72 -3q76 -10 127 -64l-4 15
l1 5q1 14 18 24q10 5 20 9zM721 450l-11 -23l3 -63l5 36zM766 375q-2 -5 -18 -12t-23 -7h-12v5l-54 -226l30 -11q52 106 77 251zM696 68l-39 5l27 -15zM188 441v97h-43l-19 22v-110q16 14 27 14q27 0 35 -23zM195 408v5l-6 24l4 -51zM141 367l-12 81l-5 -17v-27zM250 138
q-40 123 -54 219l-3 26q-6 -24 -28 -23l-14 1q-6 0 -9 3v-3q25 -136 83 -237zM269 69l-13 13l-31 -16h-5l9 -12l35 14z" />
    <glyph glyph-name="asciitilde" unicode="~" horiz-adv-x="934" 
d="M573 399q0 -34 -45 -34h-196v288h196q45 0 45 -35v-219zM482 419v104q0 15 -20 15h-15q-21 0 -21 -15v-104q0 -14 21 -14h15q20 0 20 14zM838 504l-11 -93q-14 -130 -94 -311l11 -34q-4 -26 -31 -63l-139 56v28q0 7 19 58q11 31 22 63q26 83 31 132l9 82l-2 91l-2 24
q-10 99 -77 159q-36 33 -95 46l-14 2l-46 -2q-48 -3 -94 -47q-61 -59 -71 -149l-3 -30l-2 -52l10 -98q11 -108 91 -305q-37 -18 -73 -36q-43 -20 -74 -24l-7 -1q-13 23 -30 68l10 22q-78 194 -92 316l-8 60l-3 90l7 66q5 20 13 59q11 70 83 145q68 70 139 96v40h290l-14 -40
l78 -50q47 -33 75 -71q78 -105 89 -205l3 -29zM773 607q-15 70 -59 135v-17q0 -11 -11 -20t-21 -9h-23q27 -42 43 -90q1 13 11 22.5t23 8.5l20 -1q3 1 17 -29zM531 895v8h-150v-8h150zM778 444v121q-3 -34 -28 -34h-24l-10 17l3 -26l3 -71l24 11q20 -2 32 -18zM781 404v15
l-5 22l-10 -65zM674 793q-37 40 -78 59v-37h-281v39h-3q-17 0 -65 -46q-43 -40 -63 -67q-31 -44 -46 -103l24 2q12 0 22.5 -10.5t10.5 -21.5v-29q12 84 60 141l-35 -15l-17 36v14q0 2 3 8q10 24 50 33l28 -2l3 -9v-15l-4 -21q57 51 108 56l33 3l72 -3q76 -10 127 -64l-4 15
l1 5q1 14 18 24q10 5 20 9zM721 450l-11 -23l3 -63l5 36zM766 375q-2 -5 -18 -12t-23 -7h-12v5l-54 -226l30 -11q52 106 77 251zM696 68l-39 5l27 -15zM188 441v97h-43l-19 22v-110q16 14 27 14q27 0 35 -23zM195 408v5l-6 24l4 -51zM141 367l-12 81l-5 -17v-27zM250 138
q-40 123 -54 219l-3 26q-6 -24 -28 -23l-14 1q-6 0 -9 3v-3q25 -136 83 -237zM269 69l-13 13l-31 -16h-5l9 -12l35 14z" />
    <glyph glyph-name="nonbreakingspace" unicode="&#xa0;" 
 />
    <glyph glyph-name="exclamdown" unicode="&#xa1;" 
 />
    <glyph glyph-name="cent" unicode="&#xa2;" 
 />
    <glyph glyph-name="sterling" unicode="&#xa3;" 
 />
    <glyph glyph-name="yen" unicode="&#xa5;" 
 />
    <glyph glyph-name="section" unicode="&#xa7;" 
 />
    <glyph glyph-name="dieresis" unicode="&#xa8;" 
 />
    <glyph glyph-name="copyright" unicode="&#xa9;" 
 />
    <glyph glyph-name="ordfeminine" unicode="&#xaa;" 
 />
    <glyph glyph-name="guillemotleft" unicode="&#xab;" 
 />
    <glyph glyph-name="logicalnot" unicode="&#xac;" 
 />
    <glyph glyph-name="registered" unicode="&#xae;" 
 />
    <glyph glyph-name="degree" unicode="&#xb0;" 
 />
    <glyph glyph-name="plusminus" unicode="&#xb1;" 
 />
    <glyph glyph-name="acute" unicode="&#xb4;" 
 />
    <glyph glyph-name="mu" unicode="&#xb5;" 
 />
    <glyph glyph-name="mu" unicode="&#x3bc;" 
 />
    <glyph glyph-name="paragraph" unicode="&#xb6;" 
 />
    <glyph glyph-name="ordmasculine" unicode="&#xba;" 
 />
    <glyph glyph-name="guillemotright" unicode="&#xbb;" 
 />
    <glyph glyph-name="questiondown" unicode="&#xbf;" 
 />
    <glyph glyph-name="Agrave" unicode="&#xc0;" 
 />
    <glyph glyph-name="Atilde" unicode="&#xc3;" 
 />
    <glyph glyph-name="Adieresis" unicode="&#xc4;" 
 />
    <glyph glyph-name="Aring" unicode="&#xc5;" 
 />
    <glyph glyph-name="AE" unicode="&#xc6;" 
 />
    <glyph glyph-name="Ccedilla" unicode="&#xc7;" 
 />
    <glyph glyph-name="Eacute" unicode="&#xc9;" 
 />
    <glyph glyph-name="Ntilde" unicode="&#xd1;" 
 />
    <glyph glyph-name="Otilde" unicode="&#xd5;" 
 />
    <glyph glyph-name="Odieresis" unicode="&#xd6;" 
 />
    <glyph glyph-name="Oslash" unicode="&#xd8;" 
 />
    <glyph glyph-name="Udieresis" unicode="&#xdc;" 
 />
    <glyph glyph-name="germandbls" unicode="&#xdf;" 
 />
    <glyph glyph-name="agrave" unicode="&#xe0;" 
 />
    <glyph glyph-name="aacute" unicode="&#xe1;" 
 />
    <glyph glyph-name="acircumflex" unicode="&#xe2;" 
 />
    <glyph glyph-name="atilde" unicode="&#xe3;" 
 />
    <glyph glyph-name="adieresis" unicode="&#xe4;" 
 />
    <glyph glyph-name="aring" unicode="&#xe5;" 
 />
    <glyph glyph-name="ae" unicode="&#xe6;" 
 />
    <glyph glyph-name="ccedilla" unicode="&#xe7;" 
 />
    <glyph glyph-name="egrave" unicode="&#xe8;" 
 />
    <glyph glyph-name="eacute" unicode="&#xe9;" 
 />
    <glyph glyph-name="ecircumflex" unicode="&#xea;" 
 />
    <glyph glyph-name="edieresis" unicode="&#xeb;" 
 />
    <glyph glyph-name="igrave" unicode="&#xec;" 
 />
    <glyph glyph-name="iacute" unicode="&#xed;" 
 />
    <glyph glyph-name="icircumflex" unicode="&#xee;" 
 />
    <glyph glyph-name="idieresis" unicode="&#xef;" 
 />
    <glyph glyph-name="ntilde" unicode="&#xf1;" 
 />
    <glyph glyph-name="ograve" unicode="&#xf2;" 
 />
    <glyph glyph-name="oacute" unicode="&#xf3;" 
 />
    <glyph glyph-name="ocircumflex" unicode="&#xf4;" 
 />
    <glyph glyph-name="otilde" unicode="&#xf5;" 
 />
    <glyph glyph-name="odieresis" unicode="&#xf6;" 
 />
    <glyph glyph-name="oslash" unicode="&#xf8;" 
 />
    <glyph glyph-name="ugrave" unicode="&#xf9;" 
 />
    <glyph glyph-name="uacute" unicode="&#xfa;" 
 />
    <glyph glyph-name="ucircumflex" unicode="&#xfb;" 
 />
    <glyph glyph-name="udieresis" unicode="&#xfc;" 
 />
    <glyph glyph-name="OE" unicode="&#x152;" 
 />
    <glyph glyph-name="oe" unicode="&#x153;" 
 />
    <glyph glyph-name="florin" unicode="&#x192;" 
 />
    <glyph glyph-name="Delta" unicode="&#x394;" 
 />
    <glyph glyph-name="Delta" unicode="&#x2206;" 
 />
    <glyph glyph-name="Omega" unicode="&#x3a9;" 
 />
    <glyph glyph-name="Omega" unicode="&#x2126;" 
 />
    <glyph glyph-name="pi" unicode="&#x3c0;" 
 />
    <glyph glyph-name="endash" unicode="&#x2013;" 
 />
    <glyph glyph-name="emdash" unicode="&#x2014;" 
 />
    <glyph glyph-name="quoteleft" unicode="&#x2018;" horiz-adv-x="344" 
d="M187 659h-44q-28 0 -50 15q-25 16 -25 43v198q0 26 25 42q22 15 50 15h44q27 0 50.5 -15.5t23.5 -41.5v-198q0 -27 -23.5 -42.5t-50.5 -15.5z" />
    <glyph glyph-name="quoteright" unicode="&#x2019;" horiz-adv-x="344" 
d="M187 659h-44q-28 0 -50 15q-25 16 -25 43v198q0 26 25 42q22 15 50 15h44q27 0 50.5 -15.5t23.5 -41.5v-198q0 -27 -23.5 -42.5t-50.5 -15.5z" />
    <glyph glyph-name="quotedblleft" unicode="&#x201c;" horiz-adv-x="608" 
d="M449 659h-45q-27 0 -50 15q-26 16 -26 43v198q0 26 26 42q23 15 50 15h45q29 0 51 -14q25 -17 25 -43v-198q0 -27 -23.5 -42.5t-52.5 -15.5zM178 659h-45q-28 0 -50 15q-26 16 -26 43v198q0 26 26 42q22 15 50 15h45q28 0 50 -15q26 -16 26 -42v-198q0 -27 -26 -43
q-22 -15 -50 -15z" />
    <glyph glyph-name="quotedblright" unicode="&#x201d;" horiz-adv-x="608" 
d="M449 659h-45q-27 0 -50 15q-26 16 -26 43v198q0 26 26 42q23 15 50 15h45q29 0 51 -14q25 -17 25 -43v-198q0 -27 -23.5 -42.5t-52.5 -15.5zM178 659h-45q-28 0 -50 15q-26 16 -26 43v198q0 26 26 42q22 15 50 15h45q28 0 50 -15q26 -16 26 -42v-198q0 -27 -26 -43
q-22 -15 -50 -15z" />
    <glyph glyph-name="dagger" unicode="&#x2020;" 
 />
    <glyph glyph-name="bullet" unicode="&#x2022;" 
 />
    <glyph glyph-name="ellipsis" unicode="&#x2026;" 
 />
    <glyph glyph-name="trademark" unicode="&#x2122;" 
 />
    <glyph glyph-name="partialdiff" unicode="&#x2202;" 
 />
    <glyph glyph-name="product" unicode="&#x220f;" 
 />
    <glyph glyph-name="summation" unicode="&#x2211;" 
 />
    <glyph glyph-name="radical" unicode="&#x221a;" 
 />
    <glyph glyph-name="infinity" unicode="&#x221e;" 
 />
    <glyph glyph-name="integral" unicode="&#x222b;" 
 />
    <glyph glyph-name="approxequal" unicode="&#x2248;" 
 />
    <glyph glyph-name="approxequal" unicode="&#x22f2;" 
 />
    <glyph glyph-name="notequal" unicode="&#x2260;" 
 />
    <glyph glyph-name="lessequal" unicode="&#x2264;" 
 />
    <glyph glyph-name="greaterequal" unicode="&#x2265;" 
 />
    <glyph glyph-name="apple" unicode="&#xf000;" horiz-adv-x="934" 
d="M573 399q0 -34 -45 -34h-196v288h196q45 0 45 -35v-219zM482 419v104q0 15 -20 15h-15q-21 0 -21 -15v-104q0 -14 21 -14h15q20 0 20 14zM838 504l-11 -93q-14 -130 -94 -311l11 -34q-4 -26 -31 -63l-139 56v28q0 7 19 58q11 31 22 63q26 83 31 132l9 82l-2 91l-2 24
q-10 99 -77 159q-36 33 -95 46l-14 2l-46 -2q-48 -3 -94 -47q-61 -59 -71 -149l-3 -30l-2 -52l10 -98q11 -108 91 -305q-37 -18 -73 -36q-43 -20 -74 -24l-7 -1q-13 23 -30 68l10 22q-78 194 -92 316l-8 60l-3 90l7 66q5 20 13 59q11 70 83 145q68 70 139 96v40h290l-14 -40
l78 -50q47 -33 75 -71q78 -105 89 -205l3 -29zM773 607q-15 70 -59 135v-17q0 -11 -11 -20t-21 -9h-23q27 -42 43 -90q1 13 11 22.5t23 8.5l20 -1q3 1 17 -29zM531 895v8h-150v-8h150zM778 444v121q-3 -34 -28 -34h-24l-10 17l3 -26l3 -71l24 11q20 -2 32 -18zM781 404v15
l-5 22l-10 -65zM674 793q-37 40 -78 59v-37h-281v39h-3q-17 0 -65 -46q-43 -40 -63 -67q-31 -44 -46 -103l24 2q12 0 22.5 -10.5t10.5 -21.5v-29q12 84 60 141l-35 -15l-17 36v14q0 2 3 8q10 24 50 33l28 -2l3 -9v-15l-4 -21q57 51 108 56l33 3l72 -3q76 -10 127 -64l-4 15
l1 5q1 14 18 24q10 5 20 9zM721 450l-11 -23l3 -63l5 36zM766 375q-2 -5 -18 -12t-23 -7h-12v5l-54 -226l30 -11q52 106 77 251zM696 68l-39 5l27 -15zM188 441v97h-43l-19 22v-110q16 14 27 14q27 0 35 -23zM195 408v5l-6 24l4 -51zM141 367l-12 81l-5 -17v-27zM250 138
q-40 123 -54 219l-3 26q-6 -24 -28 -23l-14 1q-6 0 -9 3v-3q25 -136 83 -237zM269 69l-13 13l-31 -16h-5l9 -12l35 14z" />
    <glyph glyph-name="DEL" horiz-adv-x="1331" 
 />
  </font>
</defs>
</svg>
